<mxfile host="app.diagrams.net" modified="2020-11-19T11:40:35.506Z" agent="5.0 (Macintosh; Intel Mac OS X 11_0_0) AppleWebKit/537.36 (KHTML, like Gecko) Chrome/86.0.4240.198 Safari/537.36" etag="F5ab1z8nmYnEb1EzA8O-" version="13.9.9" type="github">
  <diagram id="yS0bJ0Yv1PleDuSzTPfX" name="Page-1">
    <mxGraphModel dx="786" dy="514" grid="1" gridSize="10" guides="1" tooltips="1" connect="1" arrows="1" fold="1" page="1" pageScale="1" pageWidth="827" pageHeight="1169" math="0" shadow="0">
      <root>
        <mxCell id="0" />
        <mxCell id="1" parent="0" />
        <mxCell id="cmWmr7SQqTbzdXjsbUGE-5" style="edgeStyle=orthogonalEdgeStyle;rounded=0;orthogonalLoop=1;jettySize=auto;html=1;exitX=1;exitY=0.5;exitDx=0;exitDy=0;entryX=0;entryY=0.5;entryDx=0;entryDy=0;fontSize=16;" edge="1" parent="1" source="cmWmr7SQqTbzdXjsbUGE-1" target="cmWmr7SQqTbzdXjsbUGE-2">
          <mxGeometry relative="1" as="geometry" />
        </mxCell>
        <mxCell id="cmWmr7SQqTbzdXjsbUGE-1" value="BPM" style="rounded=0;whiteSpace=wrap;html=1;fontSize=16;fillColor=#ffe6cc;strokeColor=#d79b00;" vertex="1" parent="1">
          <mxGeometry x="130" y="180" width="120" height="60" as="geometry" />
        </mxCell>
        <mxCell id="cmWmr7SQqTbzdXjsbUGE-6" style="edgeStyle=orthogonalEdgeStyle;rounded=0;orthogonalLoop=1;jettySize=auto;html=1;exitX=1;exitY=0.5;exitDx=0;exitDy=0;entryX=0;entryY=0.5;entryDx=0;entryDy=0;fontSize=16;" edge="1" parent="1" source="cmWmr7SQqTbzdXjsbUGE-2" target="cmWmr7SQqTbzdXjsbUGE-3">
          <mxGeometry relative="1" as="geometry" />
        </mxCell>
        <mxCell id="cmWmr7SQqTbzdXjsbUGE-2" value="OFC" style="rounded=0;whiteSpace=wrap;html=1;fontSize=16;fillColor=#dae8fc;strokeColor=#6c8ebf;" vertex="1" parent="1">
          <mxGeometry x="340" y="180" width="120" height="60" as="geometry" />
        </mxCell>
        <mxCell id="cmWmr7SQqTbzdXjsbUGE-3" value="SSO" style="rounded=0;whiteSpace=wrap;html=1;fontSize=16;fillColor=#f5f5f5;strokeColor=#666666;fontColor=#333333;" vertex="1" parent="1">
          <mxGeometry x="550" y="180" width="120" height="60" as="geometry" />
        </mxCell>
      </root>
    </mxGraphModel>
  </diagram>
</mxfile>
